<?xml version="1.0" encoding="utf-8"?>
<svg id="Layer_1" data-name="Layer 1" viewBox="0 0 1958.92 526" xmlns="http://www.w3.org/2000/svg">
  <defs>
    <style>.cls-1{fill:#00aa13;}.cls-2{fill:#fff;}</style>
  </defs>
  <path class="cls-1" d="M559.17,324.64A96.4,96.4,0,1,1,481.62,171a95.7,95.7,0,0,1,76.85,38.2,19.31,19.31,0,0,1-15.42,31,13.78,13.78,0,0,1-11.56-6,59.91,59.91,0,0,0-109.65,29.38A59.4,59.4,0,0,0,438,308.37a59.91,59.91,0,0,0,91.89-5.45,17.2,17.2,0,0,1,13.92-6.62H545A17.31,17.31,0,0,1,560.78,306,17.56,17.56,0,0,1,559.17,324.64Z"/>
  <rect class="cls-1" x="229.67" y="113.26" width="51.6" height="28.02" rx="14.01"/>
  <rect class="cls-1" x="145.59" y="169.3" width="51.6" height="28.02" rx="14.01"/>
  <rect class="cls-1" x="115.74" y="337.42" width="51.6" height="28.02" rx="14.01"/>
  <rect class="cls-1" x="217.65" y="393.46" width="51.6" height="28.02" rx="14.01"/>
  <path class="cls-2" d="M559.17,324.64A96.4,96.4,0,1,1,481.62,171a95.7,95.7,0,0,1,76.85,38.2,19.31,19.31,0,0,1-15.42,31,13.78,13.78,0,0,1-11.56-6,59.91,59.91,0,0,0-109.65,29.38A59.4,59.4,0,0,0,438,308.37a59.91,59.91,0,0,0,91.89-5.45,17.2,17.2,0,0,1,13.92-6.62H545A17.31,17.31,0,0,1,560.78,306,17.56,17.56,0,0,1,559.17,324.64Z"/>
  <path class="cls-1" d="M482.76,113.26c-.73,0-5.29,0-6,0a2.53,2.53,0,0,0-.3,0H315.6a14,14,0,0,0-14,15c.5,7.44,7,13.05,14.48,13.05H354a13.85,13.85,0,0,1,10.26,23.13l-.28.31a13.78,13.78,0,0,1-10.26,4.57h-122a14,14,0,0,0-14,15.11c.56,7.39,7.1,12.91,14.51,12.91h88.31a13.88,13.88,0,0,1,13,18.59c0,.1-.07.19-.1.29a13.82,13.82,0,0,1-13,9.15H265.74a14,14,0,0,0-14,15.11c.57,7.39,7.1,12.91,14.51,12.91h44.89a13.6,13.6,0,0,1,13.55,13.71v.56a13.63,13.63,0,0,1-13.55,13.76H155.54a14,14,0,1,0,0,28H320.32a13.8,13.8,0,0,1,13,9.18l.1.28a13.88,13.88,0,0,1-13,18.57h-119a14,14,0,1,0,0,28h152a13.78,13.78,0,0,1,10.3,4.61l.27.31a13.85,13.85,0,0,1-10.29,23.11H300.27a14,14,0,1,0,0,28H470.08c2.94.19,9.7.26,12.68.26a154.24,154.24,0,0,0,0-308.48Zm76.41,211.38A96.4,96.4,0,1,1,481.62,171a95.7,95.7,0,0,1,76.85,38.2,19.31,19.31,0,0,1-15.42,31,13.78,13.78,0,0,1-11.56-6,59.91,59.91,0,0,0-109.65,29.38A59.4,59.4,0,0,0,438,308.37a59.91,59.91,0,0,0,91.89-5.45,17.2,17.2,0,0,1,13.92-6.62H545A17.31,17.31,0,0,1,560.78,306,17.56,17.56,0,0,1,559.17,324.64Z"/>
  <path d="M695.77,270.31c0-63.85,46.16-109.4,110.3-109.4,50.65,0,89,27.87,99.21,72.83l-43.16,10.79c-7.5-27.57-27.88-43.46-56-43.46-38.37,0-64.44,28.17-64.44,69.24s26.07,69.23,64.44,69.23c29.37,0,50.95-17.08,56.65-47.35l43.46,10.19c-8.69,48.25-48,77.33-100.11,77.33C741.93,379.71,695.77,334.15,695.77,270.31Z" style="fill: rgb(255, 255, 255);"/>
  <path d="M922.06,295.78c0-47.35,37.46-83.92,89.61-83.92,52.46,0,89.62,36.57,89.62,83.92s-37.16,83.93-89.62,83.93C959.52,379.71,922.06,343.14,922.06,295.78Zm134.87,0c0-25.77-17.68-45-45.26-45s-45.25,19.19-45.25,45,17.68,45,45.25,45S1056.93,321.56,1056.93,295.78Z" style="fill: rgb(255, 255, 255);"/>
  <path d="M1123.47,307.17V216.36h44.36v84.22c0,24.88,13.49,39,39.26,39,24.58,0,41.37-16.18,41.37-39V216.36h44.36V375.21H1250v-15h-.6c-13.19,12.58-31.48,19.48-53.65,19.48C1150.45,379.71,1123.47,353,1123.47,307.17Z" style="fill: rgb(255, 255, 255);"/>
  <path d="M1322.79,375.21V216.36h41.66v15.28h.6c11.69-12,27.57-18.28,46.75-18.28a89.56,89.56,0,0,1,26.08,4.19l-9.29,39.87a76.7,76.7,0,0,0-23.08-3.3c-23.68,0-38.36,15.59-38.36,48.56v72.53Z" style="fill: rgb(255, 255, 255);"/>
  <path d="M1453.16,190.28V145.92H1499v44.36Zm.9,184.93V216.36h44.36V375.21Z" style="fill: rgb(255, 255, 255);"/>
  <path d="M1521.8,296.08c0-48.85,36-84.22,86.32-84.22,53.35,0,86.32,37.77,86.32,85.42v12.59H1565.56c1.5,20.68,18.28,33.87,45,33.87,19.78,0,33.57-7.79,48.85-23.68L1687,347.64c-18.29,20.08-42,32.07-76.13,32.07C1555.07,379.71,1521.8,346.44,1521.8,296.08Zm129.48-17.38c-2.1-18.58-18.58-30.87-42.26-30.87-24,0-40.47,12.29-42.86,30.87Z" style="fill: rgb(255, 255, 255);"/>
  <path d="M1718.11,375.21V216.36h41.66v15.28h.6c11.69-12,27.58-18.28,46.76-18.28a89.62,89.62,0,0,1,26.08,4.19l-9.29,39.87a76.75,76.75,0,0,0-23.08-3.3c-23.68,0-38.37,15.59-38.37,48.56v72.53Z" style="fill: rgb(255, 255, 255);"/>
</svg>