<svg id="Layer_1" data-name="Layer 1" xmlns="http://www.w3.org/2000/svg" viewBox="0 0 800 526.44"><defs><style>.cls-1{fill:#00aa13;}.cls-2{fill:#fff;}</style></defs><path class="cls-1" d="M513.24,94.55c-.77,0-5.63,0-6.4,0a1.55,1.55,0,0,0-.32,0H335.32a14.91,14.91,0,0,0-14.88,15.94c.53,7.92,7.48,13.89,15.41,13.89h40.29A14.73,14.73,0,0,1,387.06,149l-.29.33a14.64,14.64,0,0,1-10.93,4.86H246a14.91,14.91,0,0,0-14.87,16.09c.6,7.86,7.55,13.74,15.44,13.74h94a14.78,14.78,0,0,1,13.87,19.79c0,.1-.08.2-.11.3a14.69,14.69,0,0,1-13.87,9.74H282.25a14.91,14.91,0,0,0-14.87,16.09c.6,7.86,7.55,13.74,15.44,13.74h47.77A14.48,14.48,0,0,1,345,258.26c0,.15,0,.3,0,.45a.76.76,0,0,0,0,.15,14.51,14.51,0,0,1-14.43,14.64H165a14.91,14.91,0,1,0,0,29.81H340.35a14.7,14.7,0,0,1,13.88,9.76c0,.11.07.21.1.31a14.77,14.77,0,0,1-13.87,19.76H213.83a14.92,14.92,0,0,0,0,29.83H375.61a14.65,14.65,0,0,1,11,4.91c.1.1.2.21.29.32a14.74,14.74,0,0,1-11,24.6H319a14.91,14.91,0,1,0,0,29.81H499.75c3.13.2,10.32.28,13.49.28a164.17,164.17,0,1,0,0-328.34Zm81.33,225a102.6,102.6,0,1,1-.74-122.9,20.56,20.56,0,0,1-16.41,33,14.66,14.66,0,0,1-12.31-6.37A63.77,63.77,0,0,0,448.4,254.5a63.27,63.27,0,0,0,17.15,47.73,63.78,63.78,0,0,0,97.81-5.81,18.32,18.32,0,0,1,14.81-7.05h1.36a18.44,18.44,0,0,1,16.76,10.31A18.68,18.68,0,0,1,594.57,319.54Z"/><path class="cls-1" d="M594.57,319.54a102.6,102.6,0,1,1-.74-122.9,20.56,20.56,0,0,1-16.41,33,14.66,14.66,0,0,1-12.31-6.37A63.77,63.77,0,0,0,448.4,254.5a63.27,63.27,0,0,0,17.15,47.73,63.78,63.78,0,0,0,97.81-5.81,18.32,18.32,0,0,1,14.81-7.05h1.36a18.44,18.44,0,0,1,16.76,10.31A18.68,18.68,0,0,1,594.57,319.54Z"/><rect class="cls-1" x="243.86" y="94.55" width="54.92" height="29.82" rx="14.91"/><rect class="cls-1" x="154.37" y="154.2" width="54.92" height="29.82" rx="14.91"/><rect class="cls-1" x="122.59" y="333.14" width="54.92" height="29.82" rx="14.91"/><rect class="cls-1" x="231.06" y="392.79" width="54.92" height="29.82" rx="14.91"/><path class="cls-2" d="M594.57,319.54a102.6,102.6,0,1,1-.74-122.9,20.56,20.56,0,0,1-16.41,33,14.66,14.66,0,0,1-12.31-6.37A63.77,63.77,0,0,0,448.4,254.5a63.27,63.27,0,0,0,17.15,47.73,63.78,63.78,0,0,0,97.81-5.81,18.32,18.32,0,0,1,14.81-7.05h1.36a18.44,18.44,0,0,1,16.76,10.31A18.68,18.68,0,0,1,594.57,319.54Z"/></svg>