<?xml version="1.0" encoding="iso-8859-1"?>
<!-- Generator: Adobe Illustrator 19.0.0, SVG Export Plug-In . SVG Version: 6.00 Build 0)  -->
<svg version="1.1" id="Layer_1" xmlns="http://www.w3.org/2000/svg" xmlns:xlink="http://www.w3.org/1999/xlink" x="0px" y="0px"
	 viewBox="0 0 451.277 451.277" style="enable-background:new 0 0 451.277 451.277;" xml:space="preserve">
<circle style="fill:#45B39C;" cx="225.638" cy="225.638" r="225.638"/>
<path style="opacity:0.1;enable-background:new    ;" d="M444.558,280.446l-166.57-166.57l-1.598-1.598
	c-13.116-12.787-31.028-20.638-50.773-20.638c-40.195,0-72.963,32.767-72.963,72.963v38.033h-10.766
	c-8.556,0-15.467,6.911-15.467,15.467v126.086c0,4.137,1.645,7.945,4.372,10.719l0.517,0.517l95.806,95.835
	C332.182,450.581,420.182,378.121,444.558,280.446z"/>
<path style="fill:#DC8744;" d="M309.4,212.044h-10.796h-0.002H272.57h-0.002h-46.93h-46.927h-0.002h-26.032h-0.002h-10.798
	c-8.535,0-15.456,6.92-15.456,15.456v116.667c0,8.536,6.92,15.456,15.456,15.456h83.761H309.4c8.535,0,15.455-6.92,15.455-15.456
	V227.5C324.855,218.964,317.935,212.044,309.4,212.044z"/>
<path style="fill:#3A556A;" d="M272.568,164.618v38.023h0.002h26.032v-38.023c0-40.232-32.732-72.964-72.964-72.964v26.034
	C251.517,117.688,272.568,138.739,272.568,164.618z"/>
<path style="fill:#64798A;" d="M178.709,202.642v-38.023c0-25.879,21.052-46.93,46.929-46.93V91.654
	c-40.231,0-72.963,32.732-72.963,72.964v38.023h0.002H178.709z"/>
<path style="fill:#F6C358;" d="M309.4,202.642h-10.796h-0.002H272.57h-0.002h-46.93V350.22H309.4c8.535,0,15.455-6.92,15.455-15.456
	V218.097C324.855,209.561,317.935,202.642,309.4,202.642z"/>
<path style="fill:#FCD462;" d="M178.711,202.642h-0.002h-26.032h-0.002h-10.798c-8.535,0-15.456,6.92-15.456,15.456v116.667
	c0,8.536,6.92,15.456,15.456,15.456h83.761V202.642H178.711z"/>
<path style="fill:#DC8744;" d="M243.305,253.907c0-9.757-7.909-17.667-17.667-17.667c-9.757,0-17.667,7.91-17.667,17.667
	c0,6.272,3.29,11.747,8.217,14.882l-5.269,25.104h29.436l-5.268-25.104C240.015,265.654,243.305,260.18,243.305,253.907z"/>
<g>
</g>
<g>
</g>
<g>
</g>
<g>
</g>
<g>
</g>
<g>
</g>
<g>
</g>
<g>
</g>
<g>
</g>
<g>
</g>
<g>
</g>
<g>
</g>
<g>
</g>
<g>
</g>
<g>
</g>
</svg>
